<svg width="779" height="173" viewBox="0 0 779 173" fill="none" xmlns="http://www.w3.org/2000/svg">
<path d="M273.308 35.5C273.147 33.4877 272.393 31.9181 271.044 30.7912C269.716 29.6643 267.694 29.1008 264.977 29.1008C263.247 29.1008 261.828 29.3121 260.721 29.7347C259.635 30.1372 258.83 30.6906 258.306 31.3949C257.783 32.0992 257.512 32.9041 257.491 33.8097C257.451 34.5542 257.582 35.2283 257.884 35.832C258.206 36.4156 258.709 36.9489 259.393 37.4318C260.077 37.8946 260.953 38.3172 262.019 38.6996C263.086 39.0819 264.353 39.424 265.822 39.7259L270.893 40.8125C274.314 41.5369 277.242 42.4928 279.677 43.68C282.112 44.8673 284.104 46.2659 285.654 47.8757C287.203 49.4654 288.34 51.2564 289.065 53.2486C289.809 55.2408 290.192 57.4141 290.212 59.7685C290.192 63.8333 289.175 67.2744 287.163 70.0916C285.151 72.9089 282.273 75.052 278.53 76.521C274.807 77.9899 270.33 78.7244 265.098 78.7244C259.725 78.7244 255.036 77.9296 251.032 76.3398C247.048 74.7501 243.949 72.3052 241.735 69.005C239.542 65.6847 238.435 61.4387 238.415 56.267H254.352C254.453 58.1586 254.926 59.7483 255.771 61.0362C256.616 62.3241 257.803 63.3001 259.333 63.9641C260.882 64.6282 262.723 64.9602 264.857 64.9602C266.647 64.9602 268.147 64.7389 269.354 64.2962C270.561 63.8535 271.477 63.2397 272.101 62.4549C272.725 61.6701 273.047 60.7746 273.067 59.7685C273.047 58.8227 272.735 57.9976 272.131 57.2933C271.547 56.5689 270.582 55.925 269.233 55.3615C267.885 54.7779 266.064 54.2346 263.77 53.7315L257.612 52.4034C252.139 51.2161 247.822 49.234 244.663 46.457C241.524 43.6599 239.964 39.8466 239.984 35.017C239.964 31.093 241.011 27.662 243.124 24.7241C245.257 21.766 248.205 19.4619 251.968 17.8118C255.751 16.1617 260.087 15.3366 264.977 15.3366C269.968 15.3366 274.284 16.1718 277.926 17.842C281.569 19.5122 284.376 21.8666 286.348 24.9052C288.34 27.9236 289.346 31.4553 289.366 35.5H273.308ZM313.499 51.9205V78H296.837V16.1818H312.895V40.4503H313.378C314.425 37.4922 316.165 35.1881 318.6 33.538C321.035 31.8678 323.963 31.0327 327.384 31.0327C330.664 31.0327 333.512 31.7772 335.926 33.2663C338.361 34.7554 340.243 36.808 341.571 39.424C342.919 42.04 343.583 45.0384 343.563 48.419V78H326.901V51.9205C326.921 49.6264 326.348 47.8254 325.181 46.5174C324.034 45.2094 322.394 44.5554 320.26 44.5554C318.912 44.5554 317.725 44.8572 316.699 45.4609C315.693 46.0445 314.908 46.8897 314.344 47.9964C313.801 49.0831 313.519 50.3911 313.499 51.9205ZM364.707 78.7244C361.749 78.7244 359.133 78.2415 356.859 77.2756C354.606 76.2895 352.835 74.8004 351.547 72.8082C350.259 70.8161 349.615 68.2805 349.615 65.2017C349.615 62.6662 350.048 60.503 350.913 58.712C351.778 56.9009 352.986 55.4219 354.535 54.2749C356.085 53.1278 357.886 52.2525 359.938 51.6488C362.011 51.0451 364.245 50.6527 366.639 50.4716C369.235 50.2704 371.318 50.0289 372.887 49.7472C374.477 49.4453 375.624 49.0328 376.328 48.5096C377.033 47.9663 377.385 47.2519 377.385 46.3665V46.2457C377.385 45.0384 376.922 44.1127 375.996 43.4688C375.071 42.8248 373.884 42.5028 372.435 42.5028C370.845 42.5028 369.547 42.855 368.541 43.5593C367.555 44.2435 366.961 45.3 366.76 46.7287H351.426C351.627 43.9115 352.523 41.3156 354.113 38.941C355.722 36.5464 358.067 34.6347 361.146 33.206C364.224 31.7571 368.068 31.0327 372.676 31.0327C375.996 31.0327 378.975 31.4251 381.611 32.2099C384.247 32.9746 386.491 34.0511 388.342 35.4396C390.193 36.808 391.602 38.4178 392.568 40.2692C393.554 42.1004 394.047 44.0926 394.047 46.2457V78H378.472V71.4801H378.109C377.184 73.2107 376.057 74.6093 374.729 75.6758C373.421 76.7423 371.922 77.517 370.231 78C368.561 78.483 366.72 78.7244 364.707 78.7244ZM370.141 68.2202C371.408 68.2202 372.596 67.9586 373.702 67.4354C374.829 66.9122 375.745 66.1576 376.449 65.1715C377.154 64.1855 377.506 62.9882 377.506 61.5795V57.7159C377.063 57.897 376.59 58.0681 376.087 58.229C375.604 58.39 375.081 58.541 374.517 58.6818C373.974 58.8227 373.391 58.9535 372.767 59.0742C372.163 59.195 371.529 59.3056 370.865 59.4062C369.577 59.6075 368.521 59.9395 367.696 60.4023C366.891 60.8451 366.287 61.3984 365.885 62.0625C365.502 62.7064 365.311 63.4309 365.311 64.2358C365.311 65.5237 365.764 66.5097 366.669 67.1939C367.575 67.8781 368.732 68.2202 370.141 68.2202ZM402.008 78V31.6364H418.187V40.4503H418.67C419.515 37.1903 420.853 34.8058 422.685 33.2965C424.536 31.7873 426.699 31.0327 429.174 31.0327C429.899 31.0327 430.613 31.093 431.317 31.2138C432.042 31.3144 432.736 31.4653 433.4 31.6665V45.8835C432.575 45.6018 431.559 45.3905 430.351 45.2496C429.144 45.1088 428.108 45.0384 427.242 45.0384C425.612 45.0384 424.143 45.4106 422.835 46.1552C421.548 46.8796 420.531 47.9059 419.787 49.234C419.042 50.542 418.67 52.0814 418.67 53.8523V78H402.008ZM458.423 78.8452C453.473 78.8452 449.207 77.8994 445.625 76.0078C442.063 74.0961 439.316 71.3594 437.384 67.7976C435.473 64.2157 434.517 59.9295 434.517 54.9389C434.517 50.1496 435.483 45.964 437.415 42.3821C439.347 38.8002 442.073 36.0131 445.595 34.021C449.116 32.0288 453.272 31.0327 458.061 31.0327C461.562 31.0327 464.732 31.576 467.569 32.6626C470.407 33.7493 472.831 35.329 474.844 37.4016C476.856 39.4542 478.405 41.9495 479.492 44.8874C480.579 47.8254 481.122 51.1357 481.122 54.8182V58.6818H439.709V49.5057H465.788C465.768 48.1776 465.426 47.0104 464.762 46.0043C464.118 44.978 463.243 44.1831 462.136 43.6197C461.049 43.0361 459.812 42.7443 458.423 42.7443C457.075 42.7443 455.837 43.0361 454.71 43.6197C453.584 44.1831 452.678 44.9679 451.994 45.9741C451.33 46.9802 450.978 48.1574 450.937 49.5057V59.4062C450.937 60.8954 451.249 62.2235 451.873 63.3906C452.497 64.5578 453.392 65.4734 454.56 66.1374C455.727 66.8015 457.135 67.1335 458.785 67.1335C459.932 67.1335 460.979 66.9725 461.925 66.6506C462.891 66.3286 463.716 65.8658 464.4 65.2621C465.084 64.6383 465.587 63.8937 465.909 63.0284H481.122C480.599 66.2481 479.361 69.0452 477.409 71.4197C475.457 73.7741 472.872 75.6054 469.652 76.9134C466.452 78.2012 462.709 78.8452 458.423 78.8452ZM502.078 16.1818H520.792L532.866 41.2955H533.349L545.423 16.1818H564.137L541.439 58.5611V78H524.777V58.5611L502.078 16.1818ZM580.399 78.8452C575.369 78.8452 571.062 77.8491 567.48 75.8569C563.898 73.8446 561.152 71.0475 559.24 67.4656C557.328 63.8635 556.372 59.688 556.372 54.9389C556.372 50.1899 557.328 46.0244 559.24 42.4425C561.152 38.8404 563.898 36.0433 567.48 34.0511C571.062 32.0388 575.369 31.0327 580.399 31.0327C585.43 31.0327 589.737 32.0388 593.318 34.0511C596.9 36.0433 599.647 38.8404 601.559 42.4425C603.471 46.0244 604.426 50.1899 604.426 54.9389C604.426 59.688 603.471 63.8635 601.559 67.4656C599.647 71.0475 596.9 73.8446 593.318 75.8569C589.737 77.8491 585.43 78.8452 580.399 78.8452ZM580.52 66.5298C581.929 66.5298 583.146 66.0569 584.172 65.1111C585.199 64.1654 585.994 62.8171 586.557 61.0664C587.121 59.3157 587.402 57.233 587.402 54.8182C587.402 52.3833 587.121 50.3005 586.557 48.57C585.994 46.8192 585.199 45.471 584.172 44.5252C583.146 43.5794 581.929 43.1065 580.52 43.1065C579.031 43.1065 577.753 43.5794 576.687 44.5252C575.62 45.471 574.805 46.8192 574.242 48.57C573.678 50.3005 573.397 52.3833 573.397 54.8182C573.397 57.233 573.678 59.3157 574.242 61.0664C574.805 62.8171 575.62 64.1654 576.687 65.1111C577.753 66.0569 579.031 66.5298 580.52 66.5298ZM641.252 57.7159V31.6364H657.914V78H642.097V69.1861H641.614C640.608 72.1442 638.847 74.4583 636.332 76.1286C633.816 77.7786 630.828 78.6037 627.367 78.6037C624.127 78.6037 621.29 77.8591 618.855 76.37C616.44 74.8809 614.558 72.8284 613.21 70.2124C611.882 67.5964 611.208 64.598 611.188 61.2173V31.6364H627.85V57.7159C627.87 60.0099 628.453 61.811 629.6 63.119C630.768 64.427 632.398 65.081 634.49 65.081C635.879 65.081 637.076 64.7892 638.082 64.2056C639.109 63.6019 639.893 62.7567 640.437 61.6701C641 60.5633 641.272 59.2453 641.252 57.7159ZM666.388 78V31.6364H682.567V40.4503H683.05C683.895 37.1903 685.233 34.8058 687.064 33.2965C688.916 31.7873 691.079 31.0327 693.554 31.0327C694.279 31.0327 694.993 31.093 695.697 31.2138C696.422 31.3144 697.116 31.4653 697.78 31.6665V45.8835C696.955 45.6018 695.939 45.3905 694.731 45.2496C693.524 45.1088 692.488 45.0384 691.622 45.0384C689.992 45.0384 688.523 45.4106 687.215 46.1552C685.927 46.8796 684.911 47.9059 684.167 49.234C683.422 50.542 683.05 52.0814 683.05 53.8523V78H666.388ZM273.308 115.5C273.147 113.488 272.393 111.918 271.044 110.791C269.716 109.664 267.694 109.101 264.977 109.101C263.247 109.101 261.828 109.312 260.721 109.735C259.635 110.137 258.83 110.691 258.306 111.395C257.783 112.099 257.512 112.904 257.491 113.81C257.451 114.554 257.582 115.228 257.884 115.832C258.206 116.416 258.709 116.949 259.393 117.432C260.077 117.895 260.953 118.317 262.019 118.7C263.086 119.082 264.353 119.424 265.822 119.726L270.893 120.812C274.314 121.537 277.242 122.493 279.677 123.68C282.112 124.867 284.104 126.266 285.654 127.876C287.203 129.465 288.34 131.256 289.065 133.249C289.809 135.241 290.192 137.414 290.212 139.768C290.192 143.833 289.175 147.274 287.163 150.092C285.151 152.909 282.273 155.052 278.53 156.521C274.807 157.99 270.33 158.724 265.098 158.724C259.725 158.724 255.036 157.93 251.032 156.34C247.048 154.75 243.949 152.305 241.735 149.005C239.542 145.685 238.435 141.439 238.415 136.267H254.352C254.453 138.159 254.926 139.748 255.771 141.036C256.616 142.324 257.803 143.3 259.333 143.964C260.882 144.628 262.723 144.96 264.857 144.96C266.647 144.96 268.147 144.739 269.354 144.296C270.561 143.853 271.477 143.24 272.101 142.455C272.725 141.67 273.047 140.775 273.067 139.768C273.047 138.823 272.735 137.998 272.131 137.293C271.547 136.569 270.582 135.925 269.233 135.362C267.885 134.778 266.064 134.235 263.77 133.732L257.612 132.403C252.139 131.216 247.822 129.234 244.663 126.457C241.524 123.66 239.964 119.847 239.984 115.017C239.964 111.093 241.011 107.662 243.124 104.724C245.257 101.766 248.205 99.4619 251.968 97.8118C255.751 96.1617 260.087 95.3366 264.977 95.3366C269.968 95.3366 274.284 96.1718 277.926 97.842C281.569 99.5122 284.376 101.867 286.348 104.905C288.34 107.924 289.346 111.455 289.366 115.5H273.308ZM319.174 158.845C314.143 158.845 309.837 157.849 306.255 155.857C302.673 153.845 299.926 151.047 298.014 147.466C296.103 143.864 295.147 139.688 295.147 134.939C295.147 130.19 296.103 126.024 298.014 122.442C299.926 118.84 302.673 116.043 306.255 114.051C309.837 112.039 314.143 111.033 319.174 111.033C323.722 111.033 327.656 111.858 330.976 113.508C334.316 115.138 336.902 117.452 338.733 120.45C340.565 123.429 341.49 126.93 341.51 130.955H326.056C325.835 128.52 325.13 126.668 323.943 125.401C322.776 124.113 321.267 123.469 319.415 123.469C317.966 123.469 316.699 123.891 315.612 124.737C314.525 125.562 313.68 126.819 313.077 128.51C312.473 130.18 312.171 132.283 312.171 134.818C312.171 137.354 312.473 139.467 313.077 141.157C313.68 142.827 314.525 144.085 315.612 144.93C316.699 145.755 317.966 146.168 319.415 146.168C320.643 146.168 321.729 145.886 322.675 145.322C323.621 144.739 324.386 143.894 324.969 142.787C325.573 141.66 325.935 140.292 326.056 138.682H341.51C341.45 142.767 340.514 146.329 338.703 149.367C336.892 152.386 334.327 154.72 331.006 156.37C327.706 158.02 323.762 158.845 319.174 158.845ZM348.385 158V111.636H364.564V120.45H365.047C365.892 117.19 367.23 114.806 369.062 113.297C370.913 111.787 373.076 111.033 375.551 111.033C376.276 111.033 376.99 111.093 377.694 111.214C378.419 111.314 379.113 111.465 379.777 111.667V125.884C378.952 125.602 377.936 125.391 376.728 125.25C375.521 125.109 374.485 125.038 373.619 125.038C371.989 125.038 370.52 125.411 369.212 126.155C367.925 126.88 366.908 127.906 366.164 129.234C365.419 130.542 365.047 132.081 365.047 133.852V158H348.385ZM404.8 158.845C399.85 158.845 395.584 157.899 392.002 156.008C388.44 154.096 385.693 151.359 383.761 147.798C381.85 144.216 380.894 139.929 380.894 134.939C380.894 130.15 381.86 125.964 383.792 122.382C385.723 118.8 388.45 116.013 391.972 114.021C395.493 112.029 399.649 111.033 404.438 111.033C407.939 111.033 411.109 111.576 413.946 112.663C416.783 113.749 419.208 115.329 421.221 117.402C423.233 119.454 424.782 121.949 425.869 124.887C426.956 127.825 427.499 131.136 427.499 134.818V138.682H386.086V129.506H412.165C412.145 128.178 411.803 127.01 411.139 126.004C410.495 124.978 409.62 124.183 408.513 123.62C407.426 123.036 406.189 122.744 404.8 122.744C403.452 122.744 402.214 123.036 401.087 123.62C399.961 124.183 399.055 124.968 398.371 125.974C397.707 126.98 397.355 128.157 397.314 129.506V139.406C397.314 140.895 397.626 142.223 398.25 143.391C398.874 144.558 399.769 145.473 400.937 146.137C402.104 146.801 403.512 147.134 405.162 147.134C406.309 147.134 407.356 146.973 408.302 146.651C409.267 146.329 410.093 145.866 410.777 145.262C411.461 144.638 411.964 143.894 412.286 143.028H427.499C426.976 146.248 425.738 149.045 423.786 151.42C421.834 153.774 419.249 155.605 416.029 156.913C412.829 158.201 409.086 158.845 404.8 158.845ZM456.514 158.845C451.564 158.845 447.298 157.899 443.716 156.008C440.154 154.096 437.407 151.359 435.475 147.798C433.564 144.216 432.608 139.929 432.608 134.939C432.608 130.15 433.574 125.964 435.506 122.382C437.437 118.8 440.164 116.013 443.686 114.021C447.207 112.029 451.363 111.033 456.152 111.033C459.653 111.033 462.823 111.576 465.66 112.663C468.497 113.749 470.922 115.329 472.934 117.402C474.947 119.454 476.496 121.949 477.583 124.887C478.67 127.825 479.213 131.136 479.213 134.818V138.682H437.8V129.506H463.879C463.859 128.178 463.517 127.01 462.853 126.004C462.209 124.978 461.334 124.183 460.227 123.62C459.14 123.036 457.903 122.744 456.514 122.744C455.166 122.744 453.928 123.036 452.801 123.62C451.674 124.183 450.769 124.968 450.085 125.974C449.421 126.98 449.068 128.157 449.028 129.506V139.406C449.028 140.895 449.34 142.223 449.964 143.391C450.588 144.558 451.483 145.473 452.65 146.137C453.818 146.801 455.226 147.134 456.876 147.134C458.023 147.134 459.07 146.973 460.015 146.651C460.981 146.329 461.806 145.866 462.491 145.262C463.175 144.638 463.678 143.894 464 143.028H479.213C478.69 146.248 477.452 149.045 475.5 151.42C473.548 153.774 470.962 155.605 467.743 156.913C464.543 158.201 460.8 158.845 456.514 158.845ZM502.674 131.92V158H486.012V111.636H501.829V120.45H502.312C503.318 117.512 505.089 115.208 507.624 113.538C510.18 111.868 513.158 111.033 516.559 111.033C519.839 111.033 522.686 111.787 525.101 113.297C527.536 114.786 529.418 116.838 530.746 119.454C532.094 122.07 532.758 125.058 532.738 128.419V158H516.076V131.92C516.096 129.626 515.512 127.825 514.325 126.517C513.158 125.209 511.528 124.555 509.435 124.555C508.067 124.555 506.87 124.857 505.843 125.461C504.837 126.045 504.062 126.89 503.519 127.996C502.976 129.083 502.694 130.391 502.674 131.92ZM583.342 126.729H568.009C567.928 125.783 567.596 124.968 567.013 124.284C566.429 123.6 565.674 123.076 564.749 122.714C563.843 122.332 562.837 122.141 561.73 122.141C560.301 122.141 559.074 122.402 558.048 122.925C557.021 123.449 556.518 124.193 556.538 125.159C556.518 125.843 556.81 126.477 557.414 127.061C558.038 127.644 559.235 128.097 561.006 128.419L570.423 130.109C575.172 130.975 578.704 132.434 581.018 134.486C583.352 136.519 584.53 139.245 584.55 142.666C584.53 145.966 583.544 148.834 581.592 151.269C579.66 153.684 577.014 155.555 573.653 156.883C570.313 158.191 566.499 158.845 562.213 158.845C555.13 158.845 549.586 157.396 545.581 154.499C541.597 151.601 539.373 147.777 538.911 143.028H555.452C555.673 144.497 556.398 145.634 557.625 146.439C558.873 147.224 560.442 147.616 562.334 147.616C563.863 147.616 565.121 147.355 566.107 146.832C567.113 146.308 567.626 145.564 567.646 144.598C567.626 143.713 567.184 143.008 566.318 142.485C565.473 141.962 564.145 141.539 562.334 141.217L554.124 139.768C549.395 138.943 545.853 137.374 543.499 135.06C541.144 132.746 539.977 129.767 539.997 126.125C539.977 122.905 540.822 120.179 542.533 117.945C544.263 115.691 546.728 113.981 549.928 112.814C553.148 111.626 556.961 111.033 561.368 111.033C568.069 111.033 573.351 112.421 577.215 115.198C581.099 117.975 583.141 121.819 583.342 126.729ZM607.596 131.92V158H590.934V96.1818H606.992V120.45H607.475C608.521 117.492 610.262 115.188 612.697 113.538C615.132 111.868 618.06 111.033 621.481 111.033C624.761 111.033 627.608 111.777 630.023 113.266C632.458 114.755 634.339 116.808 635.668 119.424C637.016 122.04 637.68 125.038 637.66 128.419V158H620.998V131.92C621.018 129.626 620.444 127.825 619.277 126.517C618.13 125.209 616.49 124.555 614.357 124.555C613.009 124.555 611.822 124.857 610.795 125.461C609.789 126.045 609.004 126.89 608.441 127.996C607.898 129.083 607.616 130.391 607.596 131.92ZM668.222 158.845C663.191 158.845 658.885 157.849 655.303 155.857C651.721 153.845 648.974 151.047 647.062 147.466C645.151 143.864 644.195 139.688 644.195 134.939C644.195 130.19 645.151 126.024 647.062 122.442C648.974 118.84 651.721 116.043 655.303 114.051C658.885 112.039 663.191 111.033 668.222 111.033C673.252 111.033 677.559 112.039 681.141 114.051C684.723 116.043 687.469 118.84 689.381 122.442C691.293 126.024 692.249 130.19 692.249 134.939C692.249 139.688 691.293 143.864 689.381 147.466C687.469 151.047 684.723 153.845 681.141 155.857C677.559 157.849 673.252 158.845 668.222 158.845ZM668.342 146.53C669.751 146.53 670.968 146.057 671.995 145.111C673.021 144.165 673.816 142.817 674.379 141.066C674.943 139.316 675.225 137.233 675.225 134.818C675.225 132.383 674.943 130.301 674.379 128.57C673.816 126.819 673.021 125.471 671.995 124.525C670.968 123.579 669.751 123.107 668.342 123.107C666.853 123.107 665.575 123.579 664.509 124.525C663.442 125.471 662.627 126.819 662.064 128.57C661.501 130.301 661.219 132.383 661.219 134.818C661.219 137.233 661.501 139.316 662.064 141.066C662.627 142.817 663.442 144.165 664.509 145.111C665.575 146.057 666.853 146.53 668.342 146.53ZM726.659 111.636V123.71H696.112V111.636H726.659ZM702.028 100.528H718.69V143.089C718.69 143.733 718.801 144.276 719.022 144.719C719.244 145.141 719.586 145.463 720.049 145.685C720.512 145.886 721.105 145.987 721.83 145.987C722.333 145.987 722.916 145.926 723.58 145.805C724.265 145.685 724.768 145.584 725.09 145.504L727.504 157.215C726.76 157.437 725.693 157.708 724.305 158.03C722.936 158.352 721.306 158.563 719.415 158.664C715.591 158.865 712.382 158.473 709.786 157.487C707.19 156.481 705.238 154.901 703.93 152.748C702.622 150.595 701.988 147.898 702.028 144.658V100.528ZM775.339 126.729H760.006C759.925 125.783 759.593 124.968 759.01 124.284C758.426 123.6 757.671 123.076 756.746 122.714C755.84 122.332 754.834 122.141 753.727 122.141C752.299 122.141 751.071 122.402 750.045 122.925C749.018 123.449 748.515 124.193 748.536 125.159C748.515 125.843 748.807 126.477 749.411 127.061C750.035 127.644 751.232 128.097 753.003 128.419L762.42 130.109C767.17 130.975 770.701 132.434 773.015 134.486C775.35 136.519 776.527 139.245 776.547 142.666C776.527 145.966 775.541 148.834 773.589 151.269C771.657 153.684 769.011 155.555 765.65 156.883C762.31 158.191 758.496 158.845 754.21 158.845C747.127 158.845 741.583 157.396 737.578 154.499C733.594 151.601 731.371 147.777 730.908 143.028H747.449C747.67 144.497 748.395 145.634 749.622 146.439C750.87 147.224 752.439 147.616 754.331 147.616C755.86 147.616 757.118 147.355 758.104 146.832C759.11 146.308 759.623 145.564 759.643 144.598C759.623 143.713 759.181 143.008 758.315 142.485C757.47 141.962 756.142 141.539 754.331 141.217L746.121 139.768C741.392 138.943 737.85 137.374 735.496 135.06C733.141 132.746 731.974 129.767 731.994 126.125C731.974 122.905 732.819 120.179 734.53 117.945C736.26 115.691 738.725 113.981 741.925 112.814C745.145 111.626 748.958 111.033 753.365 111.033C760.066 111.033 765.348 112.421 769.212 115.198C773.096 117.975 775.138 121.819 775.339 126.729Z" fill="#0015FF"/>
<path d="M90 43.7344H167V70.0302C167 70.0302 127.5 73.4154 127.5 80C127.5 86.5846 167 102.139 167 102.139V130.096H90V43.7344Z" fill="#0015FF"/>
<path d="M167 43.1806C167 55.2878 163.657 57.6593 156.5 65.5C148.603 66.9941 134.176 67.7718 128.5 75.5C126.027 76.0591 127.62 84.5 125 84.5C103.737 84.5 90 67.0286 90 43.1806C90 19.3326 107.237 0 128.5 0C149.763 0 167 19.3326 167 43.1806Z" fill="#0015FF"/>
<path d="M167 129.819C167 153.667 149.763 173 128.5 173C107.237 173 90 153.667 90 129.819C90 105.971 103.737 87.5 125 87.5C127.62 87.5 124.527 94.9409 127 95.5C132.676 100.459 150.058 101.625 154.5 103C162.662 110.918 167 116.766 167 129.819Z" fill="#0015FF"/>
<path d="M0 43.7344H77V70.0302C77 70.0302 37.5 73.4154 37.5 80C37.5 86.5846 77 102.139 77 102.139V130.096H0V43.7344Z" fill="#0015FF"/>
<path d="M77 43.1806C77 55.2878 73.6567 57.6593 66.5 65.5C58.6026 66.9941 44.1763 67.7718 38.5 75.5C36.0274 76.0591 37.6196 84.5 35 84.5C13.737 84.5 0 67.0286 0 43.1806C0 19.3326 17.237 0 38.5 0C59.763 0 77 19.3326 77 43.1806Z" fill="#0015FF"/>
<path d="M77 129.819C77 153.667 59.763 173 38.5 173C17.237 173 0 153.667 0 129.819C0 105.971 13.737 87.5 35 87.5C37.6196 87.5 34.5274 94.9409 37 95.5C42.6763 100.459 60.0577 101.625 64.5 103C72.6624 110.918 77 116.766 77 129.819Z" fill="#0015FF"/>
</svg>
